<svg width="32" height="32" viewBox="0 0 32 32" fill="none" xmlns="http://www.w3.org/2000/svg">
<path d="M10.6666 20C10.6666 18.5273 9.47274 17.3333 7.99998 17.3333C6.52722 17.3333 5.33331 18.5273 5.33331 20V22.6667C5.33331 24.1394 6.52722 25.3333 7.99998 25.3333C9.47274 25.3333 10.6666 24.1394 10.6666 22.6667V20Z" stroke="#7BB243" stroke-width="2" stroke-linecap="round" stroke-linejoin="round"/>
<path d="M26.6666 20C26.6666 18.5273 25.4727 17.3333 24 17.3333C22.5272 17.3333 21.3333 18.5273 21.3333 20V22.6667C21.3333 24.1394 22.5272 25.3333 24 25.3333C25.4727 25.3333 26.6666 24.1394 26.6666 22.6667V20Z" stroke="#7BB243" stroke-width="2" stroke-linecap="round" stroke-linejoin="round"/>
<path d="M5.33331 20V16C5.33331 13.171 6.45712 10.4579 8.45751 8.45754C10.4579 6.45715 13.171 5.33334 16 5.33334C18.829 5.33334 21.5421 6.45715 23.5425 8.45754C25.5428 10.4579 26.6666 13.171 26.6666 16V20" stroke="#7BB243" stroke-width="2" stroke-linecap="round" stroke-linejoin="round"/>
<path d="M24 25.3333C24 26.3942 23.1571 27.4116 21.6569 28.1618C20.1566 28.9119 18.1217 29.3333 16 29.3333" stroke="#7BB243" stroke-width="2" stroke-linecap="round" stroke-linejoin="round"/>
</svg>
